<?xml version="1.0" encoding="utf-8"?>
<!-- Generator: Adobe Illustrator 26.0.0, SVG Export Plug-In . SVG Version: 6.00 Build 0)  -->
<svg version="1.1" id="Capa_1" xmlns="http://www.w3.org/2000/svg" xmlns:xlink="http://www.w3.org/1999/xlink" x="0px" y="0px"
	 viewBox="0 0 180 118.6" style="enable-background:new 0 0 180 118.6;" xml:space="preserve">
<style type="text/css">
	.st0{fill:#EAC83B;}
	.st1{fill:#900C32;}
</style>
<path class="st0" d="M157.3,68.9c-0.6,0-1.2,0.3-1.7,0.7c0,0-7.8,8.9-19.6,8.9s-19.6-8.9-19.6-8.9c-1-0.8-2.5-0.7-3.3,0.3
	c-0.7,0.9-0.7,2.1,0,3c0,0,11.1,10.3,22.9,10.3S159,73,159,73c0.4-0.5,0.7-1.1,0.7-1.7C159.7,70,158.6,68.9,157.3,68.9"/>
<path class="st0" d="M136.1,45.8c-3.8,0-6.9,3.1-6.9,6.9c0,0,0,0,0,0c-0.1,0.7-0.6,1.2-1.3,1.1c-0.6-0.1-1-0.5-1.1-1.1l0,0
	c0-5.1,4.2-9.3,9.3-9.3l0,0c0.7,0,1.2,0.5,1.2,1.2S136.7,45.8,136.1,45.8 M136.1,41c-6.5,0-11.7,5.2-11.7,11.7
	c0,6.5,5.2,11.7,11.7,11.7c6.5,0,11.7-5.2,11.7-11.7c0,0,0,0,0,0C147.8,46.3,142.6,41,136.1,41C136.1,41,136.1,41,136.1,41"/>
<path class="st0" d="M14.9,87.1c-0.5,0.5-1.1,0.8-1.8,0.7c-0.7,0-1.4-0.2-1.9-0.7c-0.4-0.5-0.7-1.2-0.6-1.8v-24H2.1
	c-0.6,0-1.1-0.2-1.5-0.6C0.2,60.3,0,59.8,0,59.2c0-0.6,0.2-1.1,0.6-1.5c0.4-0.4,1-0.6,1.5-0.6H24c0.6,0,1.1,0.2,1.5,0.6
	c0.8,0.7,0.9,2,0.2,2.8c-0.1,0.1-0.1,0.1-0.2,0.2c-0.4,0.4-1,0.6-1.6,0.6h-8.4l-0.1,24C15.6,86,15.3,86.6,14.9,87.1"/>
<path class="st0" d="M29.1,87.1c-0.5,0.5-1.2,0.8-1.9,0.8c-0.7,0-1.4-0.2-1.9-0.8c-0.4-0.5-0.7-1.2-0.6-1.9V67.3
	c0-0.6,0.2-1.1,0.5-1.6c0.4-0.4,1-0.7,1.6-0.6c1.4,0,2.1,0.6,2.1,1.8v1.9H29c0.6-1.2,1.5-2.1,2.6-2.9c1.1-0.7,2.3-1.2,3.6-1.2
	c0.7,0,1.3,0.2,1.8,0.7c0.8,0.9,0.8,2.3,0,3.2c-0.5,0.5-1.1,0.7-1.8,0.7c-1.5,0-2.9,0.6-4,1.7c-1,1.2-1.6,2.7-1.5,4.3v9.9
	C29.8,85.9,29.6,86.6,29.1,87.1"/>
<path class="st0" d="M51.6,83.5c1.8,0.1,3.5-0.7,4.6-2c1.2-1.5,1.8-3.4,1.7-5.3c0.1-1.9-0.5-3.8-1.8-5.2c-1.2-1.3-2.9-2-4.7-1.9
	c-1.7,0-3.4,0.7-4.5,2c-2.3,3.1-2.4,7.3,0,10.4C48.2,82.8,49.9,83.6,51.6,83.5 M50.4,87.8c-2.8,0.1-5.6-1.1-7.4-3.2
	c-1.9-2.3-3-5.2-2.8-8.2c-0.1-3.1,0.9-6.1,2.9-8.4c1.9-2.2,4.7-3.4,7.6-3.3c1.6,0,3.2,0.4,4.6,1.2c1.3,0.7,2.4,1.8,3.1,3.2h0.1v-1.8
	c0-0.6,0.1-1.1,0.5-1.5c0.8-0.8,2.2-0.8,3,0c0.3,0.4,0.5,1,0.5,1.5V80c0,0.7,0,1.5,0.2,2.2c0.3,0.5,0.6,0.9,1.1,1.1
	c0.7,0.5,1.2,1.3,1.2,2.2c0,0.7-0.2,1.3-0.7,1.8c-0.6,0.5-1.3,0.7-2.1,0.7c-1.1,0-2.1-0.4-2.8-1.2c-0.7-0.8-1.1-1.8-1.2-2.8h-0.1
	c-0.7,1.3-1.8,2.4-3.1,3C53.6,87.5,52,87.8,50.4,87.8"/>
<path class="st0" d="M78.2,87.8c-3.6,0-6.3-0.7-8.2-2c-0.8-0.5-1.3-1.4-1.3-2.3c0-0.5,0.2-1,0.6-1.3c0.4-0.3,0.9-0.5,1.5-0.4
	c1,0.3,2,0.7,3,1.1c1.4,0.6,3,1,4.6,1c3,0,4.5-0.8,4.5-2.5c0-0.7-0.3-1.3-0.9-1.6c-0.5-0.4-1.2-0.8-1.8-1c-0.7-0.2-1.6-0.4-2.9-0.7
	c-1-0.2-2-0.5-2.9-0.8c-0.8-0.3-1.7-0.7-2.4-1.2c-0.8-0.5-1.4-1.2-1.9-2c-0.5-0.9-0.7-1.9-0.7-2.9c0-1.9,0.8-3.6,2.4-4.7
	c2-1.3,4.3-1.9,6.6-1.7c2.3-0.1,4.6,0.5,6.7,1.6c0.8,0.3,1.4,1.1,1.4,2c0.1,0.7-0.3,1.4-0.9,1.7c-0.7,0.3-1.4,0.3-2.1,0.1
	c-0.4-0.1-0.9-0.3-1.3-0.5c-0.6-0.3-1.3-0.5-2-0.7c-0.7-0.2-1.4-0.3-2.1-0.3c-2.6,0-3.9,0.8-3.9,2.3c0,0.3,0,0.6,0.2,0.8
	c0.1,0.3,0.3,0.5,0.6,0.7c0.3,0.2,0.5,0.3,0.8,0.5c0.4,0.2,0.8,0.3,1.2,0.4l1.3,0.3c0.3,0.1,0.9,0.2,1.6,0.3
	c0.9,0.2,1.6,0.4,2.2,0.5c0.7,0.2,1.4,0.5,2,0.8c0.7,0.3,1.3,0.7,1.8,1.2c0.5,0.5,1,1.1,1.2,1.8c0.3,0.8,0.5,1.6,0.5,2.5
	c0,1.9-0.8,3.8-2.2,5C84,87.2,81.6,87.9,78.2,87.8"/>
<path class="st1" d="M92.2,39.5V2c0.1-1.2,1-2.1,2.2-2c0,0,0,0,0,0h83.4c1.2-0.1,2.1,0.8,2.2,2c0,0,0,0,0,0v37.5
	c-24.2,0-43.9-15.9-43.9-35.6c0,14.6-10.8,27.1-26.3,32.6l0,0C104.1,38.6,98.2,39.6,92.2,39.5"/>
<path class="st1" d="M92.2,43.9v41.7c0,1.2,1,2.2,2.2,2.2h14.3c1.2,0,2.2-1,2.2-2.2c0-0.2,0-0.4-0.1-0.6c-0.7-2.9-1.1-5.9-1-8.9
	c0-8.8,2.2-14.6,2.2-23.4S109.7,41,109.7,41C104.1,43,98.2,44,92.2,43.9"/>
<path class="st1" d="M180,43.9v41.7c0,1.2-1,2.2-2.2,2.2c0,0,0,0,0,0h-14.3c-1.2,0-2.2-1-2.2-2.2c0-0.2,0-0.4,0.1-0.6
	c0.7-2.9,1.1-5.9,1-8.9c0-8.8-2.2-14.6-2.2-23.4s2.2-11.7,2.2-11.7C168.1,43,174,44,180,43.9"/>
<path class="st1" d="M27.8,115.4c1.2,0,2.4-0.5,3.2-1.4c0.8-1.1,1.3-2.4,1.2-3.8c0.1-1.3-0.3-2.7-1.2-3.7c-0.8-0.9-2-1.4-3.3-1.4
	c-1.2,0-2.4,0.5-3.1,1.4c-1.6,2.2-1.6,5.2,0,7.5C25.4,115,26.6,115.5,27.8,115.4 M27,118.6c-2,0.1-3.9-0.8-5.2-2.3
	c-1.4-1.7-2.1-3.8-2-5.9c-0.1-2.2,0.6-4.3,2-6c1.3-1.6,3.3-2.4,5.4-2.4c1.1,0,2.2,0.3,3.2,0.8c0.9,0.5,1.7,1.3,2.2,2.3h0.1v-1.3
	c0-0.4,0.1-0.8,0.3-1.1c0.5-0.6,1.5-0.6,2-0.1c0,0,0,0,0.1,0.1c0.2,0.3,0.4,0.7,0.3,1.1v9.1c0,0.5,0,1.1,0.2,1.6
	c0.2,0.3,0.4,0.6,0.8,0.8c0.5,0.4,0.8,0.9,0.9,1.6c0,0.5-0.2,0.9-0.5,1.3c-0.4,0.4-0.9,0.5-1.5,0.5c-0.8,0-1.5-0.3-2-0.9
	c-0.5-0.6-0.8-1.3-0.9-2h0c-0.5,0.9-1.2,1.7-2.1,2.2C29.2,118.4,28.1,118.6,27,118.6"/>
<path class="st1" d="M42.7,118.6c-0.5,0-1-0.2-1.3-0.6c-0.3-0.4-0.5-0.9-0.5-1.4v-8.8c0.1-0.8-0.3-1.6-1-2c-0.6-0.4-0.9-1.1-0.9-1.8
	c0-0.5,0.2-0.9,0.5-1.3c0.4-0.4,0.9-0.6,1.4-0.5c1.6,0.1,2.5,1.1,2.8,2.9h0.1c1-2,3-3.2,5.2-3.2c2.2-0.1,4.3,1.2,5.2,3.3h0.1
	c0.5-1,1.2-1.8,2.1-2.3c0.9-0.6,2-0.9,3.1-0.9c1.8-0.1,3.6,0.6,4.8,2c1.2,1.7,1.8,3.7,1.7,5.8v6.8c0,0.5-0.1,1-0.4,1.4
	c-0.3,0.4-0.8,0.6-1.3,0.6c-0.5,0-1-0.2-1.3-0.6c-0.3-0.4-0.5-0.9-0.5-1.4v-6.5c0-3.2-1.2-4.8-3.5-4.8c-1.1,0-2.1,0.5-2.8,1.3
	c-0.8,1-1.2,2.3-1.1,3.5v6.5c0,0.5-0.1,1-0.4,1.4c-0.3,0.4-0.8,0.6-1.3,0.6c-0.5,0-1-0.2-1.3-0.6c-0.3-0.4-0.5-0.9-0.5-1.4v-6.5
	c0.1-1.2-0.2-2.4-0.8-3.5c-0.5-0.9-1.5-1.4-2.5-1.3c-1.1,0-2.2,0.5-2.9,1.3c-0.8,1-1.1,2.3-1.1,3.6v6.4c0,0.5-0.1,1-0.4,1.4
	C43.7,118.4,43.2,118.6,42.7,118.6"/>
<path class="st1" d="M78.3,115.3c1.2,0.1,2.4-0.4,3.2-1.3c0.8-1,1.3-2.3,1.2-3.7c0.1-1.3-0.4-2.7-1.2-3.7c-0.8-0.9-2-1.4-3.2-1.3
	c-1.2-0.1-2.4,0.4-3.3,1.3c-0.8,1-1.3,2.3-1.2,3.7c-0.1,1.3,0.3,2.7,1.1,3.7C75.8,114.9,77,115.5,78.3,115.3 M79,118.6
	c-1.1,0-2.3-0.3-3.3-0.8c-1-0.5-1.7-1.2-2.2-2.2h-0.1v1.3c0,0.4-0.1,0.7-0.4,1c-0.5,0.6-1.5,0.6-2,0.1c0,0,0,0-0.1-0.1
	c-0.3-0.3-0.4-0.7-0.4-1.1V96.3c0-0.5,0.1-1,0.4-1.3c0.3-0.4,0.8-0.6,1.3-0.5c0.5,0,1,0.2,1.3,0.5c0.3,0.4,0.5,0.9,0.4,1.3v7.9h0.1
	c0.5-0.7,1.2-1.2,2.1-1.6c2.8-1.3,6-0.6,8.1,1.6c1.4,1.7,2.1,3.8,2,5.9c0.1,2.2-0.6,4.3-2,6C83,117.8,81,118.6,79,118.6"/>
<path class="st1" d="M97.2,115.4c1.2,0.1,2.4-0.5,3.2-1.4c0.8-1.1,1.3-2.4,1.2-3.8c0.1-1.4-0.4-2.7-1.2-3.7c-0.8-0.9-2-1.4-3.3-1.4
	c-1.2,0-2.4,0.5-3.1,1.4c-1.6,2.2-1.6,5.2,0,7.4C94.8,114.9,96,115.5,97.2,115.4 M96.4,118.5c-2,0.1-3.9-0.8-5.2-2.3
	c-1.4-1.7-2.1-3.8-2-5.9c-0.1-2.2,0.6-4.3,2-6c1.3-1.6,3.3-2.4,5.4-2.3c1.1,0,2.2,0.3,3.2,0.8c0.9,0.5,1.7,1.3,2.2,2.3h0.1v-1.3
	c0-0.4,0.1-0.8,0.3-1.1c0.3-0.3,0.7-0.5,1.1-0.5c0.4,0,0.8,0.2,1,0.5c0.2,0.3,0.4,0.7,0.4,1.1v9.1c0,0.5,0,1.1,0.2,1.6
	c0.2,0.3,0.5,0.6,0.8,0.8c0.5,0.4,0.8,0.9,0.8,1.6c0,0.5-0.2,0.9-0.5,1.3c-0.4,0.4-0.9,0.5-1.5,0.5c-0.7,0-1.5-0.3-1.9-0.9
	c-0.5-0.6-0.8-1.3-0.9-2h-0.1c-0.5,0.9-1.2,1.7-2.1,2.2C98.6,118.4,97.4,118.6,96.4,118.5"/>
<path class="st1" d="M110.2,112.4V96.1c0-0.5,0.2-0.9,0.5-1.3c0.7-0.6,1.8-0.6,2.5,0c0.3,0.3,0.5,0.8,0.5,1.3v15.8
	c0,1.8,0.3,2.9,0.9,3.3l0.2,0.2l0.2,0.2c0.1,0.1,0.1,0.1,0.2,0.2c0.1,0.1,0.1,0.2,0.2,0.3c0,0.1,0.1,0.2,0.1,0.3c0,0.1,0,0.2,0,0.4
	c0,0.5-0.2,0.9-0.5,1.3c-0.4,0.4-0.9,0.6-1.5,0.5c-0.8,0-1.6-0.3-2.1-0.9c-0.5-0.6-0.9-1.3-1-2.1
	C110.2,114.5,110.1,113.5,110.2,112.4"/>
<path class="st1" d="M122.3,118c-0.3,0.4-0.8,0.6-1.3,0.6c-0.5,0-1-0.2-1.3-0.6c-0.3-0.4-0.5-0.9-0.4-1.4v-13c0-0.5,0.1-1,0.4-1.4
	c0.3-0.4,0.8-0.6,1.3-0.6c0.5,0,1,0.2,1.3,0.6c0.3,0.4,0.5,0.9,0.4,1.4v13C122.8,117.1,122.6,117.6,122.3,118 M123,99
	c-0.5,0.5-1.2,0.8-1.9,0.7c-0.7,0-1.4-0.2-1.9-0.8c-0.5-0.5-0.8-1.2-0.7-1.9c0-0.7,0.2-1.4,0.7-1.9c0.5-0.5,1.2-0.7,1.9-0.7
	c0.7,0,1.4,0.2,1.9,0.7c0.5,0.5,0.7,1.2,0.7,1.9C123.7,97.8,123.5,98.5,123,99"/>
<path class="st1" d="M131.4,118c-0.3,0.4-0.8,0.6-1.3,0.6c-0.5,0-1-0.2-1.3-0.6c-0.3-0.4-0.4-0.9-0.4-1.4v-8.8c0.1-0.8-0.3-1.6-1-2
	c-0.6-0.4-1-1.1-0.9-1.8c0-1,0.8-1.8,1.8-1.8c0,0,0.1,0,0.1,0c0.7,0,1.4,0.3,1.9,0.8c0.5,0.6,0.9,1.3,1,2.1h0.1
	c1.1-2,3.2-3.2,5.4-3.2c1.8-0.1,3.6,0.6,4.8,2c1.2,1.7,1.8,3.8,1.6,5.8v6.8c0,0.5-0.1,1-0.4,1.4c-0.3,0.4-0.8,0.6-1.3,0.6
	c-0.5,0-1-0.2-1.3-0.6c-0.3-0.4-0.4-0.9-0.4-1.4v-6.5c0-3.2-1.2-4.8-3.6-4.8c-1.2,0-2.3,0.4-3.1,1.3c-0.8,1-1.2,2.3-1.2,3.6v6.4
	C131.8,117.1,131.6,117.6,131.4,118"/>
<path class="st1" d="M154.8,115.4c1.2,0,2.4-0.5,3.2-1.4c0.8-1.1,1.2-2.4,1.2-3.8c0.1-1.4-0.4-2.7-1.2-3.7c-0.8-0.9-2-1.4-3.3-1.4
	c-1.2,0-2.4,0.5-3.1,1.4c-1.6,2.2-1.6,5.2,0,7.5C152.4,114.9,153.5,115.5,154.8,115.4 M153.9,118.5c-2,0.1-3.9-0.8-5.2-2.3
	c-1.4-1.7-2.1-3.8-2-5.9c-0.1-2.2,0.6-4.3,2-6c1.3-1.5,3.3-2.4,5.3-2.3c1.1,0,2.2,0.3,3.2,0.8c0.9,0.5,1.7,1.3,2.2,2.3h0.1v-1.3
	c0-0.4,0.1-0.8,0.4-1.1c0.2-0.3,0.6-0.5,1-0.5c0.4,0,0.8,0.1,1.1,0.5c0.2,0.3,0.4,0.7,0.4,1.1v9.1c0,0.5,0,1.1,0.2,1.6
	c0.2,0.3,0.4,0.6,0.8,0.8c0.5,0.4,0.8,0.9,0.9,1.6c0,0.5-0.2,0.9-0.5,1.3c-0.4,0.4-0.9,0.5-1.5,0.5c-0.8,0-1.5-0.3-2-0.9
	c-0.5-0.6-0.8-1.3-0.9-2h-0.1c-0.5,0.9-1.2,1.7-2.1,2.2c-1,0.5-2.1,0.8-3.3,0.8"/>
<path class="st1" d="M173.4,118.6c-2,0.1-4-0.4-5.7-1.5c-0.6-0.4-0.9-1-0.9-1.7c0-0.4,0.1-0.7,0.4-1c0.3-0.2,0.6-0.3,1-0.3
	c0.7,0.2,1.4,0.5,2.1,0.8c1,0.5,2.1,0.7,3.2,0.7c2.1,0,3.2-0.6,3.2-1.8c0-0.5-0.2-0.9-0.6-1.2c-0.4-0.3-0.8-0.5-1.3-0.7
	c-0.5-0.2-1.1-0.3-2-0.5c-0.7-0.1-1.3-0.3-2-0.6c-0.6-0.2-1.2-0.5-1.7-0.9c-0.6-0.3-1-0.8-1.3-1.4c-0.3-0.6-0.5-1.3-0.5-2.1
	c0-1.3,0.6-2.6,1.7-3.4c1.4-0.9,3-1.3,4.6-1.2c1.6-0.1,3.2,0.3,4.6,1.2c0.6,0.3,1,0.8,1,1.5c0.1,0.5-0.2,1-0.6,1.2
	c-0.5,0.2-1,0.2-1.5,0.1c-0.3-0.1-0.6-0.2-0.9-0.3c-0.4-0.2-0.9-0.3-1.4-0.5c-0.5-0.1-1-0.2-1.5-0.2c-1.8,0-2.7,0.5-2.7,1.6
	c0,0.2,0,0.4,0.1,0.6c0.1,0.2,0.2,0.4,0.4,0.5c0.2,0.1,0.4,0.2,0.6,0.3c0.3,0.1,0.6,0.2,0.8,0.3l0.9,0.2c0.2,0.1,0.6,0.2,1.1,0.2
	l1.6,0.4c0.5,0.1,1,0.3,1.4,0.6c0.5,0.2,0.9,0.5,1.3,0.9c0.4,0.4,0.6,0.8,0.8,1.2c0.2,0.6,0.4,1.2,0.3,1.8c0,1.4-0.5,2.7-1.6,3.6
	C177.4,118.1,175.7,118.5,173.4,118.6"/>
<path class="st1" d="M8.1,97.7c3.1,0,4.7,1.1,4.7,3.4c0.1,1-0.3,2-1.1,2.7c-0.9,0.6-2,0.9-3.1,0.9H5.9c-0.4-0.5-0.2-2.1-1.2-3.2
	s-1-3.8-1-3.8L8.1,97.7z M13.4,113.2c0,0,0,0.1,0,0.1c0,0.1-0.1,0.1-0.1,0.2l-0.1,0.2l-0.1,0.1c-0.2,0.3-0.5,0.5-0.8,0.7
	c-1.2,0.6-2.6,0.9-3.9,0.8H7.3c-0.4-0.5-0.7-1-1-1.5c-0.4-0.7-0.9-1.3-1.5-1.8c-1.2-1.2-1.2-4-1.2-4h4.9c3.4,0,5.1,1.2,5.1,3.6
	c0,0.5-0.1,0.9-0.2,1.3C13.4,113,13.4,113.1,13.4,113.2 M16.1,108.2c-0.9-1-2.1-1.7-3.5-2v-0.1c1.1-0.3,2.1-1,2.8-2
	c0.7-1.1,1-2.3,1-3.6c0-4.1-2.8-6.1-8.3-6.1H2c-0.9-0.1-1.8,0.5-2,1.4c0,0.2,0,0.4,0,0.6v20.3c-0.1,0.9,0.5,1.8,1.4,2
	c0.2,0,0.4,0,0.6,0h6.2c2.4,0.1,4.7-0.4,6.8-1.5c1.6-1,2.4-2.7,2.4-5.1c0.1-1.4-0.4-2.7-1.3-3.7"/>
<path class="st0" d="M-65,68.9c-0.6,0-1.2,0.3-1.7,0.7c0,0-7.8,8.9-19.6,8.9s-19.6-8.9-19.6-8.9c-1-0.8-2.5-0.7-3.3,0.3
	c-0.7,0.9-0.7,2.1,0,3c0,0,11.1,10.3,22.9,10.3s22.9-10.3,22.9-10.3c0.4-0.5,0.7-1.1,0.7-1.7C-62.7,69.9-63.7,68.9-65,68.9"/>
<path class="st0" d="M-86.3,45.7c-3.8,0-6.9,3.1-6.9,6.9c0,0,0,0,0,0c-0.1,0.7-0.6,1.2-1.3,1.1c-0.6-0.1-1-0.5-1.1-1.1l0,0
	c0-5.1,4.2-9.3,9.3-9.3l0,0c0.7,0,1.2,0.5,1.2,1.2S-85.6,45.7-86.3,45.7 M-86.3,41c-6.5,0-11.7,5.2-11.7,11.7
	c0,6.5,5.2,11.7,11.7,11.7c6.5,0,11.7-5.2,11.7-11.7c0,0,0,0,0,0C-74.6,46.2-79.8,40.9-86.3,41C-86.3,40.9-86.3,40.9-86.3,41"/>
<path class="st0" d="M-207.4,87c-0.5,0.5-1.1,0.8-1.8,0.7c-0.7,0-1.4-0.2-1.9-0.7c-0.4-0.5-0.7-1.2-0.6-1.8v-24h-8.5
	c-0.6,0-1.1-0.2-1.5-0.6c-0.4-0.4-0.6-0.9-0.6-1.5c0-0.6,0.2-1.1,0.7-1.5c0.4-0.4,1-0.6,1.5-0.6h21.8c0.6,0,1.1,0.2,1.6,0.6
	c0.8,0.7,0.9,2,0.2,2.8c-0.1,0.1-0.1,0.1-0.2,0.2c-0.4,0.4-1,0.6-1.6,0.6h-8.4l-0.1,24C-206.8,85.9-207,86.6-207.4,87"/>
<path class="st0" d="M-193.2,87c-0.5,0.5-1.2,0.8-1.9,0.8c-0.7,0-1.4-0.2-1.9-0.8c-0.4-0.5-0.7-1.2-0.6-1.9V67.2
	c0-0.6,0.2-1.1,0.5-1.6c0.4-0.4,1-0.7,1.6-0.6c1.4,0,2.1,0.6,2.1,1.8v1.9h0.1c0.6-1.2,1.5-2.1,2.6-2.9c1.1-0.7,2.3-1.2,3.6-1.2
	c0.7,0,1.3,0.2,1.8,0.7c0.8,0.9,0.8,2.3,0,3.2c-0.5,0.5-1.1,0.7-1.8,0.7c-1.5,0-2.9,0.6-3.9,1.7c-1,1.2-1.6,2.7-1.5,4.3v9.9
	C-192.5,85.8-192.8,86.5-193.2,87"/>
<path class="st0" d="M-170.7,83.4c1.8,0.1,3.5-0.7,4.6-2c1.2-1.5,1.8-3.4,1.7-5.3c0.1-1.9-0.5-3.8-1.8-5.2c-1.2-1.3-2.9-2-4.7-1.9
	c-1.7,0-3.4,0.7-4.5,2c-2.3,3.1-2.4,7.3,0,10.4C-174.2,82.7-172.5,83.5-170.7,83.4 M-171.9,87.8c-2.8,0.1-5.6-1.1-7.4-3.2
	c-1.9-2.3-3-5.2-2.8-8.2c-0.1-3.1,0.9-6.1,2.9-8.4c1.9-2.2,4.7-3.4,7.6-3.3c1.6,0,3.2,0.4,4.6,1.2c1.3,0.7,2.4,1.8,3.1,3.2h0.1v-1.8
	c0-0.6,0.1-1.1,0.5-1.5c0.8-0.8,2.2-0.8,3,0c0.3,0.4,0.5,1,0.5,1.5v12.7c0,0.7,0,1.5,0.2,2.2c0.3,0.5,0.6,0.9,1.1,1.1
	c0.7,0.5,1.2,1.3,1.2,2.2c0,0.7-0.2,1.3-0.7,1.8c-0.6,0.5-1.3,0.7-2.1,0.7c-1.1,0-2.1-0.4-2.8-1.2c-0.7-0.8-1.1-1.8-1.2-2.8h-0.1
	c-0.7,1.3-1.8,2.4-3.1,3C-168.7,87.4-170.4,87.7-171.9,87.8"/>
<path class="st0" d="M-144.1,87.8c-3.6,0-6.3-0.7-8.2-2c-0.8-0.5-1.3-1.4-1.3-2.3c0-0.5,0.2-1,0.6-1.3c0.4-0.3,0.9-0.5,1.5-0.4
	c1,0.3,2,0.7,3,1.1c1.4,0.6,3,1,4.6,1c3,0,4.5-0.8,4.5-2.5c0-0.7-0.3-1.3-0.9-1.6c-0.5-0.4-1.2-0.8-1.8-1c-0.7-0.2-1.6-0.4-2.9-0.7
	c-1-0.2-2-0.5-2.9-0.8c-0.8-0.3-1.7-0.7-2.4-1.2c-0.8-0.5-1.4-1.2-1.9-2c-0.5-0.9-0.7-1.9-0.7-2.9c0-1.9,0.8-3.6,2.4-4.7
	c2-1.3,4.3-1.9,6.6-1.7c2.3-0.1,4.6,0.5,6.7,1.6c0.8,0.3,1.4,1.1,1.4,2c0.1,0.7-0.3,1.4-0.9,1.7c-0.7,0.3-1.4,0.3-2.1,0.1
	c-0.4-0.1-0.9-0.3-1.3-0.5c-0.6-0.3-1.3-0.5-2-0.7c-0.7-0.2-1.4-0.3-2.1-0.3c-2.6,0-3.9,0.8-3.9,2.3c0,0.3,0,0.6,0.1,0.8
	c0.1,0.3,0.3,0.5,0.6,0.7c0.3,0.2,0.5,0.3,0.8,0.5c0.4,0.2,0.8,0.3,1.2,0.4l1.3,0.3c0.4,0.1,0.9,0.2,1.6,0.3
	c0.9,0.2,1.6,0.4,2.2,0.5c0.7,0.2,1.4,0.5,2,0.8c0.7,0.3,1.3,0.7,1.8,1.2c0.5,0.5,1,1.1,1.2,1.8c0.3,0.8,0.5,1.6,0.5,2.5
	c0,1.9-0.8,3.8-2.2,5C-138.3,87.1-140.8,87.8-144.1,87.8"/>
<path class="st1" d="M-130.2,39.5V1.9c0.1-1.2,1-2.1,2.2-2c0,0,0,0,0,0h83.4c1.2-0.1,2.1,0.8,2.2,2c0,0,0,0,0,0v37.5
	c-24.2,0-43.9-15.9-43.9-35.6c0,14.6-10.8,27.1-26.3,32.6l0,0C-118.3,38.5-124.2,39.5-130.2,39.5"/>
<path class="st1" d="M-130.2,43.8v41.7c0,1.2,1,2.2,2.2,2.2h14.3c1.2,0,2.2-1,2.2-2.2c0-0.2,0-0.4-0.1-0.6c-0.7-2.9-1.1-5.9-1-8.9
	c0-8.8,2.2-14.6,2.2-23.4s-2.2-11.7-2.2-11.7C-118.3,42.9-124.2,43.9-130.2,43.8"/>
<path class="st1" d="M-42.4,43.8v41.7c0,1.2-1,2.2-2.2,2.2c0,0,0,0,0,0h-14.3c-1.2,0-2.2-1-2.2-2.2c0-0.2,0-0.4,0.1-0.6
	c0.7-2.9,1.1-5.9,1-8.9c0-8.8-2.2-14.6-2.2-23.4s2.2-11.7,2.2-11.7C-54.3,42.9-48.4,43.9-42.4,43.8"/>
<path class="st1" d="M-194.6,115.4c1.2,0,2.4-0.5,3.2-1.4c0.8-1.1,1.3-2.4,1.2-3.8c0.1-1.3-0.3-2.7-1.2-3.7c-0.8-0.9-2-1.4-3.3-1.4
	c-1.2,0-2.4,0.5-3.1,1.4c-1.6,2.2-1.6,5.2,0,7.5C-197,114.9-195.8,115.4-194.6,115.4 M-195.4,118.5c-2,0.1-3.9-0.8-5.2-2.3
	c-1.4-1.7-2.1-3.8-2-5.9c-0.1-2.2,0.6-4.3,2-6c1.3-1.6,3.3-2.4,5.4-2.4c1.1,0,2.2,0.3,3.2,0.8c0.9,0.5,1.7,1.3,2.2,2.3h0.1v-1.3
	c0-0.4,0.1-0.8,0.4-1.1c0.5-0.6,1.5-0.6,2-0.1c0,0,0,0,0.1,0.1c0.2,0.3,0.4,0.7,0.4,1.1v9.1c0,0.5,0,1.1,0.2,1.6
	c0.2,0.3,0.4,0.6,0.8,0.8c0.5,0.4,0.8,0.9,0.9,1.6c0,0.5-0.2,0.9-0.5,1.3c-0.4,0.4-0.9,0.5-1.5,0.5c-0.8,0-1.5-0.3-2-0.9
	c-0.5-0.6-0.8-1.3-0.9-2h0c-0.5,0.9-1.2,1.7-2.2,2.2C-193.1,118.3-194.3,118.5-195.4,118.5"/>
<path class="st1" d="M-179.7,118.5c-0.5,0-1-0.2-1.3-0.6c-0.3-0.4-0.5-0.9-0.4-1.4v-8.8c0.1-0.8-0.3-1.6-1-2
	c-0.6-0.4-0.9-1.1-0.9-1.8c0-0.5,0.2-0.9,0.5-1.3c0.4-0.4,0.9-0.6,1.4-0.5c1.6,0.1,2.5,1.1,2.9,2.9h0.1c1-2,3-3.2,5.2-3.2
	c2.2-0.1,4.3,1.2,5.2,3.3h0.1c0.5-1,1.2-1.8,2.1-2.3c0.9-0.6,2-0.9,3.1-0.9c1.8-0.1,3.6,0.6,4.8,2c1.2,1.7,1.8,3.7,1.7,5.8v6.8
	c0,0.5-0.1,1-0.4,1.4c-0.3,0.4-0.8,0.6-1.3,0.6c-0.5,0-1-0.2-1.3-0.6c-0.3-0.4-0.5-0.9-0.4-1.4V110c0-3.2-1.2-4.8-3.5-4.8
	c-1.1,0-2.1,0.5-2.8,1.3c-0.8,1-1.2,2.3-1.1,3.5v6.5c0,0.5-0.1,1-0.4,1.4c-0.3,0.4-0.8,0.6-1.3,0.6c-0.5,0-1-0.2-1.3-0.6
	c-0.3-0.4-0.5-0.9-0.4-1.4V110c0.1-1.2-0.2-2.4-0.8-3.5c-0.5-0.9-1.5-1.4-2.5-1.3c-1.1,0-2.2,0.5-2.9,1.3c-0.8,1-1.1,2.3-1.1,3.6
	v6.4c0,0.5-0.1,1-0.4,1.4C-178.7,118.3-179.2,118.5-179.7,118.5"/>
<path class="st1" d="M-144.1,115.3c1.2,0.1,2.4-0.4,3.2-1.3c0.8-1,1.3-2.3,1.2-3.7c0.1-1.3-0.4-2.7-1.2-3.7c-0.8-0.9-2-1.4-3.1-1.3
	c-1.2-0.1-2.4,0.4-3.3,1.3c-0.8,1-1.3,2.3-1.2,3.7c-0.1,1.3,0.3,2.7,1.1,3.7C-146.6,114.9-145.4,115.4-144.1,115.3 M-143.4,118.5
	c-1.1,0-2.3-0.3-3.3-0.8c-1-0.5-1.7-1.2-2.2-2.2h-0.1v1.3c0,0.4-0.1,0.7-0.4,1c-0.5,0.6-1.5,0.6-2,0.1c0,0,0,0-0.1-0.1
	c-0.3-0.3-0.4-0.7-0.4-1.1V96.2c0-0.5,0.1-1,0.4-1.3c0.3-0.4,0.8-0.6,1.3-0.5c0.5,0,1,0.2,1.3,0.5c0.3,0.4,0.5,0.9,0.4,1.3v7.9h0.1
	c0.5-0.7,1.2-1.2,2.1-1.6c2.8-1.3,6-0.6,8.1,1.6c1.4,1.7,2.1,3.8,2,5.9c0.1,2.2-0.6,4.3-2,6C-139.4,117.7-141.3,118.6-143.4,118.5"
	/>
<path class="st1" d="M-125.2,115.4c1.2,0.1,2.4-0.5,3.2-1.4c0.8-1.1,1.3-2.4,1.2-3.8c0.1-1.4-0.4-2.7-1.2-3.7
	c-0.8-0.9-2-1.4-3.3-1.4c-1.2,0-2.4,0.5-3.1,1.4c-1.6,2.2-1.6,5.2,0,7.4C-127.6,114.9-126.4,115.4-125.2,115.4 M-126,118.5
	c-2,0.1-3.9-0.8-5.2-2.3c-1.4-1.7-2.1-3.8-2-5.9c-0.1-2.2,0.6-4.3,2-6c1.3-1.6,3.3-2.4,5.4-2.3c1.1,0,2.2,0.3,3.2,0.8
	c0.9,0.5,1.7,1.3,2.2,2.3h0.1v-1.3c0-0.4,0.1-0.8,0.3-1.1c0.3-0.3,0.7-0.5,1.1-0.5c0.4,0,0.8,0.2,1,0.5c0.2,0.3,0.4,0.7,0.4,1.1v9.1
	c0,0.5,0,1.1,0.2,1.6c0.2,0.3,0.5,0.6,0.8,0.8c0.5,0.4,0.8,0.9,0.8,1.6c0,0.5-0.2,0.9-0.5,1.3c-0.4,0.4-0.9,0.5-1.5,0.5
	c-0.7,0-1.5-0.3-1.9-0.9c-0.5-0.6-0.8-1.3-0.9-2h-0.1c-0.5,0.9-1.2,1.7-2.1,2.2C-123.8,118.3-124.9,118.5-126,118.5"/>
<path class="st1" d="M-112.2,112.3V96.1c0-0.5,0.2-0.9,0.5-1.3c0.7-0.6,1.8-0.6,2.5,0c0.3,0.3,0.5,0.8,0.5,1.3v15.8
	c0,1.8,0.3,2.9,0.9,3.3l0.2,0.2l0.2,0.2c0.1,0.1,0.1,0.1,0.2,0.2c0.1,0.1,0.1,0.2,0.2,0.3c0,0.1,0.1,0.2,0.1,0.3c0,0.1,0,0.2,0,0.4
	c0,0.5-0.2,0.9-0.5,1.3c-0.4,0.4-0.9,0.6-1.5,0.5c-0.8,0-1.6-0.3-2.1-0.9c-0.5-0.6-0.9-1.3-1-2.1
	C-112.2,114.5-112.2,113.4-112.2,112.3"/>
<path class="st1" d="M-100,117.9c-0.3,0.4-0.8,0.6-1.3,0.6c-0.5,0-1-0.2-1.3-0.6c-0.3-0.4-0.5-0.9-0.4-1.4v-13c0-0.5,0.1-1,0.4-1.4
	c0.3-0.4,0.8-0.6,1.3-0.6c0.5,0,1,0.2,1.3,0.6c0.3,0.4,0.5,0.9,0.4,1.4v13C-99.6,117-99.7,117.5-100,117.9 M-99.4,98.9
	c-0.5,0.5-1.2,0.8-1.9,0.7c-0.7,0-1.4-0.2-1.9-0.8c-0.5-0.5-0.8-1.2-0.7-1.9c0-0.7,0.2-1.4,0.7-1.9c0.5-0.5,1.2-0.7,1.9-0.7
	c0.7,0,1.4,0.2,1.9,0.7c0.5,0.5,0.7,1.2,0.7,1.9C-98.6,97.7-98.9,98.4-99.4,98.9"/>
<path class="st1" d="M-91,117.9c-0.3,0.4-0.8,0.6-1.3,0.6c-0.5,0-1-0.2-1.3-0.6c-0.3-0.4-0.4-0.9-0.4-1.4v-8.8c0.1-0.8-0.3-1.6-1-2
	c-0.6-0.4-1-1.1-0.9-1.8c0-1,0.8-1.8,1.8-1.8c0,0,0.1,0,0.1,0c0.7,0,1.4,0.3,1.9,0.8c0.5,0.6,0.9,1.3,1,2.1h0.1
	c1.1-2,3.2-3.2,5.4-3.2c1.8-0.1,3.6,0.6,4.8,2c1.2,1.7,1.8,3.8,1.6,5.8v6.8c0,0.5-0.1,1-0.4,1.4c-0.3,0.4-0.8,0.6-1.3,0.6
	c-0.5,0-1-0.2-1.3-0.6c-0.3-0.4-0.4-0.9-0.4-1.4v-6.5c0-3.2-1.2-4.8-3.6-4.8c-1.2,0-2.3,0.4-3.1,1.3c-0.8,1-1.2,2.3-1.2,3.6v6.4
	C-90.6,117.1-90.7,117.6-91,117.9"/>
<path class="st1" d="M-67.6,115.4c1.2,0,2.4-0.5,3.2-1.4c0.8-1.1,1.2-2.4,1.2-3.8c0.1-1.4-0.4-2.7-1.2-3.7c-0.8-0.9-2-1.4-3.3-1.4
	c-1.2,0-2.4,0.5-3.1,1.4c-1.6,2.2-1.6,5.2,0,7.5C-70,114.9-68.8,115.4-67.6,115.4 M-68.4,118.5c-2,0.1-3.9-0.8-5.2-2.3
	c-1.4-1.7-2.1-3.8-2-5.9c-0.1-2.2,0.6-4.3,2-6c1.3-1.5,3.3-2.4,5.3-2.3c1.1,0,2.2,0.3,3.2,0.8c0.9,0.5,1.7,1.3,2.2,2.3h0.1v-1.3
	c0-0.4,0.1-0.8,0.4-1.1c0.2-0.3,0.6-0.5,1-0.5c0.4,0,0.8,0.1,1.1,0.5c0.2,0.3,0.4,0.7,0.4,1.1v9.1c0,0.5,0,1.1,0.2,1.6
	c0.2,0.3,0.4,0.6,0.8,0.8c0.5,0.4,0.8,0.9,0.9,1.6c0,0.5-0.2,0.9-0.5,1.3c-0.4,0.4-0.9,0.5-1.5,0.5c-0.8,0-1.5-0.3-2-0.9
	c-0.5-0.6-0.8-1.3-0.9-2h-0.1c-0.5,0.9-1.2,1.7-2.1,2.2c-1,0.5-2.1,0.8-3.3,0.8"/>
<path class="st1" d="M-49,118.5c-2,0.1-4-0.4-5.7-1.5c-0.6-0.4-0.9-1-0.9-1.7c0-0.4,0.1-0.7,0.4-1c0.3-0.2,0.6-0.3,1-0.3
	c0.7,0.2,1.4,0.5,2.1,0.8c1,0.5,2.1,0.7,3.2,0.7c2.1,0,3.2-0.6,3.2-1.8c0-0.5-0.2-0.9-0.6-1.2c-0.4-0.3-0.8-0.5-1.3-0.7
	c-0.5-0.2-1.1-0.3-2-0.5c-0.7-0.1-1.3-0.3-2-0.6c-0.6-0.2-1.2-0.5-1.7-0.9c-0.6-0.3-1-0.8-1.3-1.4c-0.3-0.6-0.5-1.3-0.5-2.1
	c0-1.3,0.6-2.6,1.7-3.4c1.4-0.9,3-1.3,4.6-1.2c1.6-0.1,3.2,0.3,4.6,1.2c0.6,0.3,1,0.8,1,1.5c0.1,0.5-0.2,1-0.6,1.2
	c-0.5,0.2-1,0.2-1.5,0.1c-0.3-0.1-0.6-0.2-0.9-0.3c-0.4-0.2-0.9-0.3-1.4-0.5c-0.5-0.1-1-0.2-1.5-0.2c-1.8,0-2.7,0.5-2.7,1.6
	c0,0.2,0,0.4,0.1,0.6c0.1,0.2,0.2,0.4,0.4,0.5c0.2,0.1,0.4,0.2,0.6,0.3c0.3,0.1,0.6,0.2,0.8,0.3l0.9,0.2c0.2,0.1,0.6,0.2,1.1,0.2
	l1.6,0.4c0.5,0.1,1,0.3,1.4,0.6c0.5,0.2,0.9,0.5,1.3,0.9c0.4,0.4,0.6,0.8,0.8,1.2c0.2,0.6,0.4,1.2,0.3,1.8c0,1.4-0.5,2.7-1.6,3.6
	C-44.9,118-46.7,118.5-49,118.5"/>
<path class="st1" d="M-214.3,97.6c3.1,0,4.7,1.1,4.7,3.4c0.1,1-0.3,2-1.1,2.7c-0.9,0.6-2,0.9-3,0.9h-2.6c-0.4-0.5-0.1-2.1-1.2-3.2
	s-1-3.8-1-3.8L-214.3,97.6z M-209,113.2c0,0,0,0.1,0,0.1c0,0.1-0.1,0.1-0.1,0.2l-0.1,0.2l-0.1,0.1c-0.2,0.3-0.5,0.5-0.8,0.7
	c-1.2,0.6-2.6,0.9-3.9,0.8h-1.1c-0.4-0.5-0.7-1-1-1.5c-0.4-0.7-0.9-1.3-1.5-1.8c-1.2-1.2-1.2-4-1.2-4h4.9c3.4,0,5.1,1.2,5.1,3.6
	c0,0.5-0.1,0.9-0.2,1.3C-208.9,113-209,113-209,113.2 M-206.3,108.1c-0.9-1-2.1-1.7-3.5-2v-0.1c1.1-0.3,2.1-1,2.8-2
	c0.7-1.1,1-2.3,1-3.6c0-4.1-2.8-6.1-8.3-6.1h-6c-0.9-0.1-1.8,0.5-2,1.4c0,0.2,0,0.4,0,0.6v20.3c-0.1,0.9,0.5,1.8,1.4,2
	c0.2,0,0.4,0,0.6,0h6.2c2.4,0.1,4.7-0.4,6.8-1.5c1.6-1,2.4-2.7,2.4-5.1c0.1-1.4-0.4-2.7-1.3-3.7"/>
</svg>
